<?xml version="1.0" standalone="no"?>
<!DOCTYPE svg PUBLIC "-//W3C//DTD SVG 20010904//EN"
 "http://www.w3.org/TR/2001/REC-SVG-20010904/DTD/svg10.dtd">
<svg version="1.0" xmlns="http://www.w3.org/2000/svg"
 width="225.000000pt" height="225.000000pt" viewBox="0 0 225.000000 225.000000"
 preserveAspectRatio="xMidYMid meet">

<g transform="translate(0.000000,225.000000) scale(0.100000,-0.100000)"
fill="#004D40" stroke="none">
<path d="M1000 2219 c-403 -47 -764 -327 -903 -699 -151 -404 -62 -844 232
-1153 284 -297 688 -410 1087 -303 182 49 346 145 485 285 433 432 433 1120 0
1552 -182 183 -406 289 -666 319 -102 11 -129 11 -235 -1z m370 -119 c463
-118 783 -553 757 -1029 -36 -654 -679 -1100 -1302 -904 -536 169 -832 749
-652 1278 120 350 411 600 780 671 102 19 307 11 417 -16z"/>
<path d="M1055 1769 c-158 -16 -291 -84 -402 -203 -119 -127 -173 -265 -173
-443 0 -187 57 -323 194 -458 130 -129 267 -185 455 -185 183 0 318 57 451
190 134 133 190 268 190 455 0 115 -18 192 -68 295 -51 105 -177 231 -282 282
-122 60 -235 81 -365 67z m246 -122 c131 -47 234 -128 294 -231 188 -321 42
-702 -315 -822 -76 -26 -234 -26 -310 0 -271 91 -431 339 -392 609 32 221 208
413 425 463 87 20 215 12 298 -19z"/>
</g>
</svg>
