<?xml version="1.0" standalone="no"?>
<!DOCTYPE svg PUBLIC "-//W3C//DTD SVG 20010904//EN"
 "http://www.w3.org/TR/2001/REC-SVG-20010904/DTD/svg10.dtd">
<svg version="1.0" xmlns="http://www.w3.org/2000/svg"
 width="980.000000pt" height="980.000000pt" viewBox="0 0 980.000000 980.000000"
 preserveAspectRatio="xMidYMid meet">

<g transform="translate(0.000000,980.000000) scale(0.100000,-0.100000)"
fill="#CBD5A9" stroke="none">
<path d="M1737 9790 c-272 -34 -530 -132 -744 -283 -95 -67 -531 -489 -633
-612 -160 -195 -272 -432 -326 -691 -24 -114 -28 -152 -28 -319 0 -141 4 -213
17 -280 45 -232 146 -473 274 -655 55 -78 245 -273 1042 -1072 l975 -978 -975
-977 c-797 -800 -987 -995 -1042 -1073 -130 -185 -232 -429 -273 -656 -28
-150 -25 -423 4 -572 54 -272 163 -506 330 -712 87 -108 514 -527 602 -592
292 -214 594 -312 960 -312 364 0 668 99 958 313 61 45 375 352 1055 1030
l967 965 978 -975 c1067 -1065 1052 -1051 1287 -1168 205 -103 409 -156 640
-168 394 -20 790 110 1090 358 95 77 521 509 577 584 151 201 249 423 300 677
29 149 32 422 4 572 -41 227 -143 471 -273 656 -55 78 -245 273 -1042 1073
l-975 977 975 978 c797 799 987 994 1042 1072 130 185 232 429 273 656 28 150
25 423 -4 572 -45 226 -140 452 -263 627 -69 97 -489 532 -614 635 -301 247
-696 377 -1090 357 -231 -12 -435 -65 -640 -168 -235 -117 -220 -103 -1288
-1168 l-977 -976 -978 976 c-1067 1065 -1053 1052 -1287 1169 -222 110 -420
159 -675 165 -85 2 -186 0 -223 -5z m361 -726 c108 -22 214 -66 304 -127 61
-41 344 -318 1286 -1259 l1207 -1208 1200 1199 c660 659 1227 1219 1261 1243
277 200 656 225 953 62 101 -56 169 -115 391 -341 226 -230 277 -300 331 -455
91 -265 52 -564 -104 -798 -16 -25 -577 -593 -1246 -1262 l-1216 -1218 1216
-1217 c669 -670 1231 -1240 1249 -1266 45 -68 105 -200 125 -277 26 -101 31
-289 10 -391 -23 -115 -66 -223 -127 -316 -70 -109 -462 -501 -571 -571 -144
-94 -310 -142 -487 -142 -167 0 -312 41 -468 131 -43 25 -365 341 -1285 1259
l-1227 1225 -1218 -1216 c-669 -669 -1238 -1231 -1265 -1248 -140 -94 -285
-141 -458 -148 -200 -9 -367 35 -526 139 -109 71 -502 463 -571 571 -61 93
-104 202 -127 316 -21 102 -16 290 10 391 20 77 80 209 125 277 18 26 580 596
1249 1266 l1216 1217 -1216 1218 c-669 669 -1231 1239 -1249 1265 -44 66 -105
199 -125 272 -26 95 -31 294 -11 395 24 116 67 224 128 317 54 83 391 433 503
523 106 84 235 144 375 174 89 20 264 19 358 0z"/>
</g>
</svg>
